<?xml version="1.0" encoding="utf-8"?>
<svg version="1.0" xmlns="http://www.w3.org/2000/svg" width="32px" height="32px" viewBox="0 0 960.000000 768.000000" preserveAspectRatio="xMidYMid meet">
  <g transform="matrix(0.100001, -0.000001, -0.000001, -0.100001, -4461.305242, -3714.760309)" fill="#000000" stroke="none" style="transform-origin: 4957.01px 4075.24px;">
    <path d="M6116 6931 l-689 -6 -87 -195 c-47 -107 -112 -248 -143 -313 -31 -65 -57 -120 -57 -122 0 -3 -34 -77 -109 -240 -21 -44 -57 -125 -81 -180 -24 -55 -116 -242 -203 -415 -201 -397 -187 -370 -196 -370 -11 0 -34 44 -106 205 -308 685 -466 1019 -713 1515 l-57 115 -1278 3 -1277 2 2 -2857 3 -2858 685 3 c377 1 690 4 696 6 7 3 11 643 13 2187 1 1201 4 2185 6 2187 2 2 36 -61 75 -140 40 -78 76 -147 80 -153 4 -5 183 -359 398 -785 215 -426 422 -833 461 -905 l70 -130 78 1 c43 0 299 1 569 3 448 2 493 4 507 19 20 23 363 703 472 937 49 105 112 241 142 303 29 62 53 117 53 123 0 5 5 9 10 9 6 0 10 -62 10 -165 l0 -165 354 0 353 0 6 273 c6 302 19 410 66 554 54 164 124 276 244 389 190 179 415 264 660 251 243 -12 416 -131 488 -333 31 -86 37 -261 14 -379 -73 -372 -397 -841 -1134 -1640 -85 -92 -139 -151 -196 -215 -49 -55 -149 -167 -365 -405 -190 -209 -410 -457 -528 -594 l-82 -96 2 -545 3 -545 840 2 c462 1 1230 2 1708 2 l867 1 0 545 0 544 -985 -6 c-542 -3 -985 -3 -985 1 0 6 163 211 180 226 3 3 39 46 80 95 41 50 77 92 80 95 3 3 75 86 160 185 180 209 159 185 380 435 430 485 603 706 778 992 118 194 176 319 246 528 79 239 110 433 110 690 1 370 -61 608 -217 840 -150 222 -368 371 -652 444 -202 51 -472 58 -1809 47z" style="fill: rgb(73, 0, 255);"/>
  </g>
</svg>